<mxfile host="app.diagrams.net" modified="2024-02-07T01:21:10.065Z" agent="Mozilla/5.0 (Macintosh; Intel Mac OS X 10_15_7) AppleWebKit/537.36 (KHTML, like Gecko) Chrome/121.0.0.0 Safari/537.36" version="23.1.1" etag="lPxh5K9Rw_rmR4du7I67" type="github">
  <diagram name="第 1 页" id="iRCMkNTg4Jzq-ZVZJdkL">
    <mxGraphModel>
      <root>
        <mxCell id="0" />
        <mxCell id="1" parent="0" />
      </root>
    </mxGraphModel>
  </diagram>
</mxfile>
